<svg width="20" height="21" viewBox="0 0 20 21" fill="none" xmlns="http://www.w3.org/2000/svg">
<path fill-rule="evenodd" clip-rule="evenodd" d="M9.78077 0C12.3946 0 14.5539 1.99166 14.8202 4.53892L14.8945 4.5398C16.3445 4.5398 18.1075 5.5028 18.7025 8.2038L19.4915 14.3108C19.7745 16.2818 19.4205 17.8628 18.4375 18.9968C17.4595 20.1248 15.9115 20.7218 13.9605 20.7218H5.61247C3.46947 20.7218 1.97647 20.1968 1.04747 19.1178C0.11447 18.0358 -0.19753 16.4128 0.12047 14.2948L0.89647 8.2688C1.40647 5.5058 3.27147 4.5398 4.71547 4.5398C4.84013 3.39028 5.35847 2.2967 6.18077 1.477C7.12577 0.538 8.42877 0 9.75977 0H9.78077ZM14.8945 6.0398H4.71547C4.27447 6.0398 2.80047 6.2178 2.37747 8.5018L1.60547 14.5018C1.35447 16.1848 1.54847 17.4028 2.18347 18.1398C2.81047 18.8678 3.93247 19.2218 5.61247 19.2218H13.9605C15.0085 19.2218 16.4395 19.0128 17.3035 18.0148C17.9895 17.2238 18.2255 16.0458 18.0055 14.5128L17.2265 8.4608C16.8945 6.9698 16.0185 6.0398 14.8945 6.0398ZM12.6973 8.8239C13.1113 8.8239 13.4703 9.1599 13.4703 9.5739C13.4703 9.9879 13.1573 10.3239 12.7433 10.3239H12.6973C12.2833 10.3239 11.9473 9.9879 11.9473 9.5739C11.9473 9.1599 12.2833 8.8239 12.6973 8.8239ZM6.86717 8.8239C7.28117 8.8239 7.64017 9.1599 7.64017 9.5739C7.64017 9.9879 7.32617 10.3239 6.91217 10.3239H6.86717C6.45317 10.3239 6.11717 9.9879 6.11717 9.5739C6.11717 9.1599 6.45317 8.8239 6.86717 8.8239ZM9.77777 1.5H9.76277C8.82177 1.5 7.90477 1.879 7.23977 2.54C6.69807 3.07927 6.34379 3.7882 6.22918 4.53933L13.3085 4.53961C13.0515 2.82138 11.5657 1.5 9.77777 1.5Z" fill="white"/>
</svg>
