<svg width="20" height="20" viewBox="0 0 20 20" fill="none" xmlns="http://www.w3.org/2000/svg">
<path fill-rule="evenodd" clip-rule="evenodd" d="M8.80494 12.3175L12.4619 18.2505C12.6219 18.5105 12.8719 18.5075 12.9729 18.4935C13.0739 18.4795 13.3169 18.4175 13.4049 18.1225L17.9779 2.67753C18.0579 2.40453 17.9109 2.21853 17.8449 2.15253C17.7809 2.08653 17.5979 1.94553 17.3329 2.02053L1.87694 6.54653C1.58394 6.63253 1.51995 6.87853 1.50594 6.97953C1.49194 7.08253 1.48794 7.33753 1.74694 7.50053L7.74794 11.2535L13.0499 5.89553C13.3409 5.60153 13.8159 5.59853 14.1109 5.88953C14.4059 6.18053 14.4079 6.65653 14.1169 6.95053L8.80494 12.3175ZM12.8949 19.9995C12.1989 19.9995 11.5609 19.6455 11.1849 19.0375L7.30794 12.7465L0.951945 8.77153C0.266945 8.34253 -0.091055 7.57853 0.019945 6.77553C0.129945 5.97253 0.680945 5.33453 1.45494 5.10753L16.9109 0.581527C17.6219 0.373527 18.3839 0.570527 18.9079 1.09253C19.4319 1.61953 19.6269 2.38953 19.4149 3.10353L14.8419 18.5475C14.6129 19.3245 13.9729 19.8735 13.1719 19.9805C13.0779 19.9925 12.9869 19.9995 12.8949 19.9995Z" fill="#6DB5CB"/>
</svg>
