<svg width="11" height="12" viewBox="0 0 11 12" fill="none" xmlns="http://www.w3.org/2000/svg">
<path d="M2.33881 9.51079C1.59753 8.84333 1.53751 7.69821 2.20497 6.95693L3.76628 5.22292L2.94262 4.4813L1.38132 6.21531C0.304018 7.41177 0.40073 9.25714 1.59719 10.3344C2.79366 11.4117 4.63903 11.315 5.71633 10.1186L7.27764 8.38456L6.45398 7.64294L4.89268 9.37695C4.22522 10.1182 3.0801 10.1782 2.33881 9.51079ZM4.37265 8.12376L7.49526 4.65575L6.62826 3.8751L3.50565 7.34311L4.37265 8.12376ZM5.28458 1.88029L3.72328 3.6143L4.54693 4.35592L6.10823 2.62191C6.77569 1.88063 7.92081 1.82061 8.6621 2.48807C9.40338 3.15553 9.4634 4.30065 8.79594 5.04194L7.23464 6.77594L8.05829 7.51756L9.61959 5.78356C10.6969 4.58709 10.6002 2.74172 9.40372 1.66442C8.20725 0.587119 6.36188 0.683831 5.28458 1.88029Z" fill="#6DB5CB"/>
</svg>
